<svg xmlns="http://www.w3.org/2000/svg" width="23" height="20.46347999572754" style=""><rect id="backgroundrect" width="100%" height="100%" x="0" y="0" fill="none" stroke="none"/>
<g class="currentLayer" style=""><g stroke="#61dafb" stroke-width="1" fill="none" id="svg_2" class="">
    <ellipse rx="11" ry="4.199999809265137" id="svg_3" cy="10.231739521026611" cx="11.5" class=""/>
    <ellipse rx="11" ry="4.199999809265137" transform="rotate(60 11.499999999999998,10.23173999786377) " id="svg_4" cy="10.231739521026611" cx="11.5" class=""/>
    <ellipse rx="11" ry="4.199999809265137" transform="rotate(120 11.500000000000002,10.231739044189453) " id="svg_5" cy="10.231739521026611" cx="11.5" class=""/>
  </g><image xmlns:xlink="http://www.w3.org/1999/xlink" id="svg_7" x="-790" y="-35" width="1" height="0" style="color: rgb(0, 0, 0);" xlink:href="logo/vector_paint_icon256.png"/><g class="" id="svg_6" stroke="none" fill-opacity="1" fill="#61dafb"><path d="M10.003386534567426,10.291114765406011 C8.945604885704071,10.324734537564623 8.631217770252427,11.080357419821084 8.559170722961426,11.489715643065416 C8.653049990501074,11.337978011738993 8.948879751490033,11.005042056475702 9.384436901022,11.005042056475702 C9.892041097844967,11.005042056475702 10.27847526058762,11.571593837445855 10.514265597176355,11.748436589887405 C10.800731206936952,11.963287434640748 11.376360915865767,12.24696940848328 12.132049295437952,12.016975584335688 C12.734624600053607,11.833583100322228 13.014081997032264,11.193883917156988 13.075210641792893,10.890415204235715 C12.783747586842928,11.286673964336225 12.341640705739046,11.52468465992784 11.79473811948462,11.244100709118818 C11.418128554099837,11.050883627747494 11.136490096507735,10.255097791492082 10.003386534567426,10.291114765406011 z" fill="#61dafb" class="" id="svg_14" stroke="none" stroke-opacity="1"/><path d="M11.369005567310516,8.362218817478725 C10.311223918447162,8.395838589637336 9.996836802995524,9.151461471893793 9.924789755704516,9.560819695138125 C10.018667058324695,9.409082063811706 10.314498784233123,9.076146108548409 10.750055933765083,9.076146108548409 C11.257660130588057,9.076146108548409 11.64409429333071,9.642697889518562 11.879884629919445,9.819540641960117 C12.166350239680042,10.034391486713456 12.741979948608858,10.318073460555993 13.497668328181042,10.088079636408397 C14.100243632796698,9.904687152394937 14.379701029775347,9.2649879692297 14.440829674535976,8.961519256308424 C14.149366619586019,9.35777801640894 13.707259738482136,9.595788712000552 13.16035715222771,9.31520476119153 C12.783747586842928,9.121987679820203 12.502109129250826,8.326201843564796 11.369005567310516,8.362218817478725 z" fill="#61dafb" class="" id="svg_13" stroke="none" stroke-opacity="1"/></g></g></svg>
