<svg width="1024" height="1024" viewBox="0 0 1024 1024" fill="none" xmlns="http://www.w3.org/2000/svg">
<rect width="1024" height="1024" fill="black"/>
<path d="M279.641 550.02C483.807 476.097 627.262 543.917 680.934 539.694C734.606 535.471 766.969 504.621 768.937 458.731C770.686 417.943 735.838 385.214 695.014 384.809C657.874 384.44 628.465 408.248 621.092 444.651" stroke="white" stroke-width="36" stroke-linecap="round"/>
<path d="M255 630.982C316.77 587.423 455.647 578.409 522.529 613.618C589.411 648.826 569.932 718.331 526.049 729.546C491.729 738.316 455.11 712.277 452.126 676.98" stroke="white" stroke-width="36" stroke-linecap="round"/>
<path d="M311.322 472.577C459.167 437.376 473.62 441.732 545.165 410.777C616.71 379.823 596.473 300.917 545.165 293.553C511.388 288.706 479.854 316.382 478.887 350.491" stroke="white" stroke-width="36" stroke-linecap="round"/>
</svg>
